<mxfile host="app.diagrams.net" modified="2024-07-15T02:00:18.767Z" agent="Mozilla/5.0 (Macintosh; Intel Mac OS X 10_15_7) AppleWebKit/537.36 (KHTML, like Gecko) Chrome/120.0.0.0 Safari/537.36 Edg/120.0.0.0" version="24.6.5" etag="XMvZb6MsRw5QzlyCCa8a" type="github">
  <diagram name="PÃ¡gina-1" id="yk_hr7xOjnAvsSuyqYRH">
    <mxGraphModel>
      <root>
        <mxCell id="0" />
        <mxCell id="1" parent="0" />
      </root>
    </mxGraphModel>
  </diagram>
</mxfile>
